<svg width="275" height="275" viewBox="0 0 275 275" fill="none" xmlns="http://www.w3.org/2000/svg">
<circle cx="137.5" cy="137.5" r="135" fill="white" stroke="url(#paint0_linear_143_58800)" stroke-width="5"/>
<mask id="mask0_143_58800" style="mask-type:luminance" maskUnits="userSpaceOnUse" x="5" y="2" width="265" height="238">
<path d="M120.238 3.66732C82.1316 8.58765 47.3909 30.7815 26.0598 63.8105C15.1354 80.7699 8.24936 99.8754 5.71241 120.604C4.72869 128.56 4.78047 145.31 5.76418 153.58C8.61178 176.612 17.4134 198.648 31.4443 217.44C36.1558 223.773 45.0093 233.509 49.5136 237.33L51.947 239.424L54.2251 237.645C55.4677 236.65 66.185 230.526 77.9896 223.983C100.926 211.316 102.841 210.007 105.016 205.191C106.103 202.783 106.207 201.632 106.362 192.524L106.517 182.526L103.048 177.344C98.803 171.063 94.195 161.432 91.9687 154.261C90.5708 149.811 89.8978 148.555 88.0339 146.566C84.6685 143.007 84.2026 140.756 84.2026 128.455C84.2026 116.94 84.6685 114.427 87.309 111.129L88.914 109.088L88.8105 92.4949C88.7587 73.8605 89.0694 71.505 92.2276 64.8573C95.4894 58.0003 100.822 52.8182 108.329 49.1018C124.172 41.2502 151.147 41.2502 166.783 49.1018C174.446 52.9753 179.519 57.9479 182.833 64.8573C185.991 71.505 186.302 73.8605 186.25 92.4949L186.147 109.088L187.752 111.129C190.392 114.427 190.858 116.94 190.858 128.455C190.858 140.023 190.392 142.588 187.7 145.886C186.82 146.985 185.008 148.398 183.661 149.079C181.487 150.23 181.176 150.597 180.037 153.947C177.241 162.112 170.77 173.994 165.489 180.537L163.832 182.631L164.039 192.629L164.246 202.626L165.903 206.081C166.886 208.018 168.44 210.269 169.527 211.159C170.562 212.048 181.953 218.12 194.741 224.611C207.581 231.102 219.127 237.226 220.473 238.168L222.855 240L229.223 233.823C249.208 214.351 262.152 190.744 267.484 164.049C269.711 152.847 270.228 146.304 269.918 133.061C269.659 119.818 268.416 110.972 265.206 99.8231C258.993 78.048 248.431 59.7276 232.537 43.187C211.257 21.0455 184.438 7.54077 153.943 3.61498C146.28 2.62044 128.056 2.67279 120.238 3.66732Z" fill="white"/>
</mask>
<g mask="url(#mask0_143_58800)">
<circle cx="137.5" cy="137.5" r="132.5" fill="url(#paint1_linear_143_58800)"/>
</g>
<defs>
<linearGradient id="paint0_linear_143_58800" x1="0" y1="137.5" x2="275" y2="137.5" gradientUnits="userSpaceOnUse">
<stop stop-color="#FA0101"/>
<stop offset="1" stop-color="#016DEA"/>
</linearGradient>
<linearGradient id="paint1_linear_143_58800" x1="108.669" y1="256.951" x2="323.002" y2="145.256" gradientUnits="userSpaceOnUse">
<stop stop-color="#016DEA"/>
<stop offset="1" stop-color="#FA0101"/>
</linearGradient>
</defs>
</svg>
