<svg width="147" height="148" viewBox="0 0 147 148" fill="none" xmlns="http://www.w3.org/2000/svg">
<circle cx="73.2293" cy="74" r="73.2293" fill="#FF9776"/>
<path fill-rule="evenodd" clip-rule="evenodd" d="M100.382 119.999C102.927 119.999 104.99 117.967 104.99 115.46C104.99 112.954 102.927 110.921 100.382 110.921C97.8362 110.921 95.7727 112.954 95.7727 115.46C95.7727 117.967 97.8362 119.999 100.382 119.999ZM100.382 118.668C102.248 118.668 103.761 117.178 103.761 115.339C103.761 113.501 102.248 112.011 100.382 112.011C98.515 112.011 97.0018 113.501 97.0018 115.339C97.0018 117.178 98.515 118.668 100.382 118.668Z" fill="white"/>
<path d="M50.978 89.8619V91.3977C50.978 92.135 51.5691 92.7168 52.2983 92.7168L65.5205 92.7165C66.3885 92.7165 67.0205 91.884 66.7958 91.036L60.4502 67.0892C60.2255 66.2414 60.8575 65.4087 61.7256 65.4087L103.679 65.4117C104.548 65.4118 105.18 66.2453 104.954 67.0934L95.9905 100.806C95.8354 101.389 95.3125 101.794 94.7154 101.794L88.4581 101.794C87.5975 101.794 86.9669 100.975 87.1782 100.131L93.1841 76.1509C93.3953 75.3073 92.7648 74.4882 91.9042 74.488L73.1098 74.4867C72.2417 74.4867 71.6098 75.3193 71.8343 76.1673L78.1828 100.11C78.4081 100.958 77.7762 101.791 76.9078 101.791L43.3204 101.795C42.5912 101.795 42 101.197 42 100.46L42.0015 48.5391C42.0015 47.8019 42.5926 47.2042 43.3217 47.2042L49.6583 47.2037C50.3876 47.2036 50.9787 47.7987 50.9787 48.536C50.9787 61.0305 50.9782 82.2088 50.978 89.8619Z" fill="white"/>
<path fill-rule="evenodd" clip-rule="evenodd" d="M49.6004 118.542C48.8 119.439 47.6545 120 46.3823 120C43.9623 120 42.0004 117.968 42.0004 115.461C42.0004 112.955 43.9623 110.923 46.3823 110.923C47.6977 110.923 48.8779 111.523 49.681 112.474H97.3938L96.6138 115.508L97.874 118.542H49.6004ZM49.5641 115.404C49.5641 117.234 48.0864 118.718 46.2634 118.718C44.4406 118.718 42.9628 117.234 42.9628 115.404C42.9628 113.574 44.4406 112.09 46.2634 112.09C48.0864 112.09 49.5641 113.574 49.5641 115.404Z" fill="white"/>
<path d="M50.132 112.489C49.7077 112.484 49.459 112.292 49.2816 112.177L49.4958 112.504L50.0914 112.567L50.132 112.489Z" fill="white"/>
<path d="M50.132 118.555C49.7077 118.56 49.459 118.752 49.2816 118.867L49.4958 118.54L50.0914 118.478L50.132 118.555Z" fill="white"/>
<path d="M96.2017 118.233C96.6262 118.237 96.8751 118.429 97.0527 118.543L96.838 118.217L96.2423 118.155L96.2017 118.233Z" fill="white"/>
<path d="M96.5595 118.471C96.9803 118.527 97.2049 118.747 97.3677 118.882L97.1932 118.532L96.609 118.399L96.5595 118.471Z" fill="white"/>
<path d="M96.4121 112.483C96.8364 112.477 97.085 112.285 97.2624 112.171L97.0484 112.497L96.4528 112.56L96.4121 112.483Z" fill="white"/>
<path fill-rule="evenodd" clip-rule="evenodd" d="M46.3821 38.0774C48.8022 38.0774 50.764 36.0454 50.764 33.5387C50.764 31.032 48.8022 29 46.3821 29C43.962 29 42.0002 31.032 42.0002 33.5387C42.0002 36.0454 43.962 38.0774 46.3821 38.0774ZM46.3681 36.8532C48.1911 36.8532 49.6689 35.3693 49.6689 33.5387C49.6689 31.7082 48.1911 30.2242 46.3681 30.2242C44.5451 30.2242 43.0672 31.7082 43.0672 33.5387C43.0672 35.3693 44.5451 36.8532 46.3681 36.8532Z" fill="white"/>
<path fill-rule="evenodd" clip-rule="evenodd" d="M96.0181 51.7434C96.0181 54.2501 98.0272 56.2821 100.506 56.2821C102.984 56.2821 104.993 54.2501 104.993 51.7434C104.993 49.2367 102.984 47.2047 100.506 47.2047C98.0272 47.2047 96.0181 49.2367 96.0181 51.7434ZM97.2917 51.7434C97.2917 53.5387 98.7307 54.9939 100.506 54.9939C102.281 54.9939 103.72 53.5387 103.72 51.7434C103.72 49.9482 102.281 48.4929 100.506 48.4929C98.7307 48.4929 97.2917 49.9482 97.2917 51.7434Z" fill="white"/>
<path fill-rule="evenodd" clip-rule="evenodd" d="M103.506 31.7182C103.506 31.0479 102.969 30.5046 102.306 30.5046H50.67C49.8874 30.5046 49.3142 31.2495 49.5065 32.0164L49.8355 33.3285C49.8712 33.4715 49.8811 33.6199 49.8643 33.7664L49.6978 35.2195C49.6152 35.9403 50.1725 36.5728 50.8901 36.5728H96.3047C96.9676 36.5728 97.505 37.1162 97.505 37.7865V47.327C97.505 48.0801 98.1763 48.6515 98.9103 48.5229L100.296 48.28C100.431 48.2563 100.57 48.2562 100.705 48.2799L102.102 48.5238C102.836 48.652 103.506 48.0807 103.506 47.3279V31.7182Z" fill="white"/>
<path d="M50.997 30.5099C49.9783 30.5526 49.4308 30.1874 48.9296 29.8594L49.4616 30.6237L50.9042 30.7055L50.997 30.5099Z" fill="white"/>
<path d="M50.9617 36.5647C49.943 36.522 49.3957 36.8871 48.8944 37.2152L49.4263 36.4508L50.8689 36.3691L50.9617 36.5647Z" fill="white"/>
<path d="M96.9764 49.2241C97.5458 48.3691 97.5249 47.7063 97.5109 47.1026L97.8764 47.9612L97.1898 49.2467L96.9764 49.2241Z" fill="white"/>
<path d="M104.043 49.1088C103.474 48.2538 103.494 47.591 103.508 46.9873L103.143 47.8459L103.83 49.1314L104.043 49.1088Z" fill="white"/>
<path d="M49.6158 30.511C49.5712 30.4981 49.7435 30.808 49.8074 30.9693L49.9478 30.9113L50.1713 30.6401C50.001 30.6014 49.6516 30.5213 49.6158 30.511Z" fill="white"/>
<path d="M49.6585 36.5516C49.6139 36.5645 49.7862 36.2546 49.8501 36.0933L49.9905 36.1513L50.2139 36.4225C50.0437 36.4612 49.6943 36.5413 49.6585 36.5516Z" fill="white"/>
<path d="M97.6698 48.1084C97.6824 48.0631 97.8531 48.3739 97.9557 48.5134L97.8332 48.6039L97.4877 48.6544C97.5442 48.4875 97.6598 48.1447 97.6698 48.1084Z" fill="white"/>
<path d="M103.35 47.9931C103.337 47.9478 103.166 48.2586 103.064 48.3981L103.186 48.4886L103.532 48.5391C103.475 48.3722 103.36 48.0294 103.35 47.9931Z" fill="white"/>
</svg>
