<svg width="84" height="229" viewBox="0 0 84 229" fill="none" xmlns="http://www.w3.org/2000/svg">
<path d="M30.6508 20.6231C30.6767 35.9744 28.9189 41.5477 21.9976 48.0283C18.8596 50.9588 16.3185 53.5641 16.4769 54.0734C16.5957 54.4554 19.8322 54.985 23.7449 55.4439C32.6681 56.2997 38.801 61.6536 47.49 76.1263C50.9973 82.0173 54.5302 86.6436 55.2064 86.573C56.0099 86.4627 56.1468 79.7179 55.7209 71.6122C54.8775 54.9792 56.7969 47.6801 63.3983 42.416C68.5424 38.3032 68.4012 36.9508 62.952 37.3884C53.5731 38.2103 45.4459 31.3821 36.4968 15.175C34.5056 11.4656 32.3305 8.51157 31.6938 8.70952C31.0572 8.90746 30.6122 14.2122 30.6508 20.6231ZM40.9532 30.4053C44.1042 35.1504 49.6743 39.1433 54.6281 40.2559C57.1488 40.7288 57.0921 41.4446 53.9338 47.4533C51.6528 51.793 50.5005 56.6194 50.5166 62.06L50.521 70.1572L45.2088 63.85C39.5316 56.8186 34.4142 53.3831 27.9015 52.1966L23.4881 51.4745L26.793 48.6317C30.9978 45.0902 35.2346 35.8139 35.4506 29.3237C35.7373 23.5097 36.62 23.6542 40.9532 30.4053Z" fill="#D8C8FF" fill-opacity="0.5"/>
<path d="M59.7537 10.0381C57.402 13.7015 54.1977 24.0531 55.5983 23.6176C57.5081 23.0238 63.1882 11.2042 62.5547 9.16711C62.3172 8.40319 61.9524 7.67885 61.6977 7.75803C61.4431 7.83721 60.662 8.91784 59.7537 10.0381Z" fill="#D8C8FF" fill-opacity="0.5"/>
<path d="M21.4426 69.1454C19.3092 70.3673 17.2945 71.9711 16.9436 72.6388C16.0181 74.6021 26.9227 69.2566 27.9755 67.2537C29.116 65.0839 27.3335 65.6381 21.4426 69.1454Z" fill="#D8C8FF" fill-opacity="0.5"/>
<path d="M26.6607 80.0897C24.1561 85.0574 23.1654 88.158 24.3113 87.8017C26.0937 87.2475 29.7699 80.6589 32.2296 73.7503C34.242 68.0979 30.7445 72.1176 26.6607 80.0897Z" fill="#D8C8FF" fill-opacity="0.5"/>
<circle cx="19.5" cy="213.5" r="12" stroke="#FF9776" stroke-opacity="0.12" stroke-width="7"/>
</svg>
